{"title":"Julias Eyes *2010* [BRRip.XviD-miguel] [ENG]","uid":6358672,"size":1875620330,"categoryP":"video","categoryS":"movies","magnet":"?xt=urn:btih:d74d2eede136c0d01c3482e74fc5c314b06e225c&amp;dn=Julias+Eyes+%2A2010%2A+%5BBRRip.XviD-miguel%5D+%5BENG%5D&amp;tr=udp%3A%2F%2Ftracker.openbittorrent.com%3A80&amp;tr=udp%3A%2F%2Fopen.demonii.com%3A1337&amp;tr=udp%3A%2F%2Ftracker.coppersurfer.tk%3A6969&amp;tr=udp%3A%2F%2Fexodus.desync.com%3A6969","seeders":3,"leechers":0,"uploader":"miguel1983","files":-1,"time":1304246481,"description":" &lt;a href=&quot;http://img683.imageshack.us/img683/7199/losojosdejuliaoriginal.jpg&quot; rel=&quot;nofollow&quot; target=&quot;_NEW&quot;&gt;http://img683.imageshack.us/img683/7199/losojosdejuliaoriginal.jpg&lt;/a&gt;\n\nCountry.......: Spain\nGenre.........: Horror, Thriller\nDate release..: 11.09.2010 [World]\nDirector......: Guillem Morales\nWriters.......: Guillem Morales, Oriol Paulo\nDuration......: 117 min.\nMore..........: http://www.imdb.com/title/tt1512685\nTrailer.......: http://www.imdb.com/video/screenplay/vi1026399513\nTrailer.......:\n\nPilot :\nThe story of a woman who is slowly losing her sight whilst trying to investigate the mysterious death of her twin sister. \n\nCats :\nBelen Rueda   \t ...  \tJulia | Sara\nLluis Homar \t... \tIsaac\nPablo Derqui \t... \tIvan\nFrancesc Orella \t... \tInspector Dimas\nJoan Dalmau \t... \tCrespulo\nBoris Ruiz \t... \tBlasco\nDaniel Grao \t... \tDr. Roman\nClara Segura \t... \tMina\nAndrea Hermosa \t... \tLia\nJulia Gutierrez Caba \t... \tSra. Soledad\nMia Esteve \t\t\nJordi Llordella \t\t\nPere Ventura\n\nData Technical :\n!!! SAMPLE !!!\nAudio.....: Spanish\nSubtitles.: English .srt\nFormat                           : AVI\nFormat/Info                      : Audio Video Interleave\nFile size                        : 1.74 GiB\nDuration                         : 1h 57mn\nOverall bit rate                 : 2 126 Kbps\nWriting application              : VirtualDubMod 1.5.10.3\nWriting library                  : VirtualDubMod build 2550/release\nVideo\nID                               : 0\nFormat                           : MPEG-4 Visual\nFormat profile                   : Advanced Simple@L5\nFormat settings, BVOP            : Yes\nFormat settings, QPel            : No\nFormat settings, GMC             : No warppoints\nFormat settings, Matrix          : Default (MPEG)\nCodec ID                         : XVID\nCodec ID/Hint                    : XviD\nDuration                         : 1h 57mn\nBit rate                         : 1 669 Kbps\nWidth                            : 720 pixels\nHeight                           : 304 pixels\nDisplay aspect ratio             : 2.35:1\nFrame rate                       : 23.976 fps\nColor space                      : YUV\nChroma subsampling               : 4:2:0\nBit depth                        : 8 bits\nScan type                        : Progressive\nBits/(Pixel*Frame)               : 0.318\nStream size                      : 1.37 GiB (78%)\nWriting library                  : XviD 62\nAudio\nID                               : 1\nFormat                           : AC-3\nFormat/Info                      : Audio Coding 3\nMode extension                   : CM (complete main)\nCodec ID                         : 2000\nDuration                         : 1h 57mn\nBit rate mode                    : Constant\nBit rate                         : 448 Kbps\nChannel(s)                       : 6 channels\nChannel positions                : Front: L C R, Side: L R, LFE\nSampling rate                    : 48.0 KHz\nBit depth                        : 16 bits\nStream size                      : 376 MiB (21%)\nAlignment                        : Split accross interleaves\nInterleave, duration             : 42 ms (1.00 video frame)\nInterleave, preload duration     : 500 ms\n\nScreen : &lt;a href=&quot;\nhttp://img705.imageshack.us/img705/9202/juliaseyes2010s1.jpg&quot; rel=&quot;nofollow&quot; target=&quot;_NEW&quot;&gt;\nhttp://img705.imageshack.us/img705/9202/juliaseyes2010s1.jpg&lt;/a&gt; &lt;a href=&quot;\nhttp://img40.imageshack.us/img40/7844/juliaseyes2010s2.jpg&quot; rel=&quot;nofollow&quot; target=&quot;_NEW&quot;&gt;\nhttp://img40.imageshack.us/img40/7844/juliaseyes2010s2.jpg&lt;/a&gt; &lt;a href=&quot;\nhttp://img402.imageshack.us/img402/141/juliaseyes2010s3.jpg&quot; rel=&quot;nofollow&quot; target=&quot;_NEW&quot;&gt;\nhttp://img402.imageshack.us/img402/141/juliaseyes2010s3.jpg&lt;/a&gt; &lt;a href=&quot;\nhttp://img171.imageshack.us/img171/7806/juliaseyes2010s4.jpg&quot; rel=&quot;nofollow&quot; target=&quot;_NEW&quot;&gt;\nhttp://img171.imageshack.us/img171/7806/juliaseyes2010s4.jpg&lt;/a&gt; &lt;a href=&quot;\nhttp://img810.imageshack.us/img810/7794/juliaseyes2010s5.jpg&quot; rel=&quot;nofollow&quot; target=&quot;_NEW&quot;&gt;\nhttp://img810.imageshack.us/img810/7794/juliaseyes2010s5.jpg&lt;/a&gt;","torrent":{"xt":"urn:btih:d74d2eede136c0d01c3482e74fc5c314b06e225c","amp;dn":"Julias+Eyes+%2A2010%2A+%5BBRRip.XviD-miguel%5D+%5BENG%5D","amp;tr":["udp%3A%2F%2Ftracker.openbittorrent.com%3A80","udp%3A%2F%2Fopen.demonii.com%3A1337","udp%3A%2F%2Ftracker.coppersurfer.tk%3A6969","udp%3A%2F%2Fexodus.desync.com%3A6969"],"infoHash":"d74d2eede136c0d01c3482e74fc5c314b06e225c","infoHashBuffer":{"type":"Buffer","data":[215,77,46,237,225,54,192,208,28,52,130,231,79,197,195,20,176,110,34,92]},"announce":[],"urlList":[]}}